<?xml version="1.0" standalone="no"?>
<svg viewBox="0 0 200 200" xmlns="http://www.w3.org/2000/svg">
  <path fill="#1B1F3B" d="M37.3,-58C49.7,-50.1,61.9,-42,70.7,-30.1C79.5,-18.2,85,-2.6,84.5,13.3C83.9,29.1,77.3,45.2,65.4,53.7C53.4,62.2,36.1,63.1,21.2,63.6C6.2,64.1,-6.4,64.3,-17.3,60.4C-28.2,56.5,-37.4,48.5,-48.3,39.7C-59.2,31,-71.8,21.6,-76.3,9.2C-80.9,-3.2,-77.4,-18.5,-69,-29.3C-60.6,-40.1,-47.3,-46.5,-35,-54.4C-22.6,-62.3,-11.3,-71.8,0.6,-72.7C12.5,-73.6,25,-65.9,37.3,-58Z" transform="translate(100 100)" />
</svg>
